<svg id="Calque_1" data-name="Calque 1" xmlns="http://www.w3.org/2000/svg" viewBox="0 0 55.92 59.6"><title>ecology</title><path d="M32,59.59a.76.76,0,0,0,.75-.75V49.93l.36,0A7.68,7.68,0,0,0,40.76,45c2.8-6.92-1.31-19.19-8.29-24.77l-.06,0a.61.61,0,0,0-.14-.07l-.13,0h-.28l-.13,0a.61.61,0,0,0-.14.07l-.06,0c-7,5.59-11.09,17.85-8.29,24.77A7.68,7.68,0,0,0,30.89,50l.36,0v8.91A.75.75,0,0,0,32,59.59ZM24.63,44.47C22.16,38.35,25.86,27.16,32,21.85c6.14,5.31,9.84,16.5,7.37,22.61-1.12,2.76-3.35,4.08-6.62,4V43.89l4.07-2.36a.75.75,0,0,0,.27-1,.74.74,0,0,0-1-.27l-3.32,1.93V32.35a.75.75,0,1,0-1.5,0v5l-2.36-2.19a.75.75,0,0,0-1.06,0,.76.76,0,0,0,0,1.06l3.38,3.14v9C28,48.54,25.74,47.23,24.63,44.47Z" transform="translate(-4.04 -8.2)"/><path d="M32,11.88a27.9,27.9,0,0,0-9.48,1.66L24.6,9.28a.75.75,0,1,0-1.35-.66l-2.93,6a0,0,0,0,1,0,0v0h0a1066487901303.79,1066487901303.79,0,0,0,0,.12.5.5,0,0,0,0,.13v0s0,.08,0,.11l0,.14a0,0,0,0,1,0,0h0l.07.09a.28.28,0,0,0,.08.11l0,0,.1.07s.05,0,.09.06h0l0,0h0l6,2.25A.86.86,0,0,0,27,18a.75.75,0,0,0,.7-.49.74.74,0,0,0-.44-1l-4.15-1.57A26.43,26.43,0,1,1,8.78,27.14a.75.75,0,1,0-1.31-.72A28,28,0,1,0,32,11.88Z" transform="translate(-4.04 -8.2)"/></svg>