<svg id="Calque_1" data-name="Calque 1" xmlns="http://www.w3.org/2000/svg" viewBox="0 0 58 72"><title>education</title><path d="M49.63,14a5.59,5.59,0,0,0-1.88.38l-25,10.07c-1.22.5-1.22,1.3,0,1.8L33,30.4v8.11a17,17,0,1,0,34,0V30.43l4-1.61v5.43a3,3,0,1,0,4,0v-7l2.25-.92c1.22-.5,1.22-1.3,0-1.8l-25-10.1-.22-.1A6.8,6.8,0,0,0,49.63,14ZM50,17.07l20.53,8.31L50,33.68l-20.56-8.3ZM37,32,47.78,36.4a7,7,0,0,0,4.47,0L63,32v6.47a13,13,0,1,1-26,0ZM50,59.73C34.21,59.73,21,70.36,21,84a2,2,0,0,0,2,2H77a2,2,0,0,0,2-2C79,70.36,65.79,59.73,50,59.73Zm0,4c13.15,0,23.48,8.17,24.75,18.19H25.25C26.52,71.94,36.85,63.77,50,63.77Z" transform="translate(-21 -14)"/></svg>