<?xml version="1.0" encoding="utf-8"?>
<!-- Generator: Adobe Illustrator 24.0.2, SVG Export Plug-In . SVG Version: 6.00 Build 0)  -->
<svg version="1.1" id="Calque_1" xmlns="http://www.w3.org/2000/svg" xmlns:xlink="http://www.w3.org/1999/xlink" x="0px" y="0px"
	 viewBox="0 0 100 125" style="enable-background:new 0 0 100 125;" xml:space="preserve">
<style type="text/css">
	.st0{fill:#8E8E8E;}
</style>
<path class="st0" d="M53.3,50.8H41.1l6-6L42.3,40L28.2,54.1l14.1,14.1l4.7-4.7l-6-6h12.3c4.6,0,8.4,3.8,8.4,8.4s-3.8,8.4-8.4,8.4H40
	v6.7h13.4c8.3,0,15.1-6.8,15.1-15.1S61.7,50.8,53.3,50.8z M50,25.7c-20.3,0-36.8,16.5-36.8,36.8S29.7,99.3,50,99.3
	s36.8-16.5,36.8-36.8S70.3,25.7,50,25.7z M50,92.6c-16.6,0-30.1-13.5-30.1-30.1S33.4,32.4,50,32.4c16.6,0,30.1,13.5,30.1,30.1
	S66.6,92.6,50,92.6z"/>
</svg>
