<svg id="Calque_1" data-name="Calque 1" xmlns="http://www.w3.org/2000/svg" viewBox="0 0 94.16 136"><title>retraite</title><path d="M126,73.26l-19.92-36c0-.08-.11-.15-.16-.23s-.08-.16-.14-.23l-.07-.07-.09-.11a14.09,14.09,0,0,0-10.89-5.16H91.56A16,16,0,0,0,92,27.72,15.72,15.72,0,0,0,76.29,12h0A15.65,15.65,0,0,0,61,31.46H57.15a12.76,12.76,0,0,0-10,4.84L34.26,52.81a3.52,3.52,0,0,0-.3.45,8.09,8.09,0,0,0-.39,7.13,2.39,2.39,0,0,0,.13.28l11.08,21a8.59,8.59,0,0,0,9.31,4.84v51.14a10.61,10.61,0,0,0,21.21,0V85.25a1,1,0,0,1,1-1,.94.94,0,0,1,.68.29.93.93,0,0,1,.28.66v52.37A10.22,10.22,0,0,0,80.38,145a10.67,10.67,0,0,0,7.46,3h0a10.5,10.5,0,0,0,10.6-10.38V58.47l13,23a8.31,8.31,0,0,0,5.07,4,7.53,7.53,0,0,0,1.15.22V144.5a3.5,3.5,0,0,0,7,0V83.25A8.43,8.43,0,0,0,126,73.26ZM67.54,27.71a8.75,8.75,0,0,1,14.93-6.15A8.62,8.62,0,0,1,85,27.71a8.74,8.74,0,0,1-8.74,8.72h0a8.74,8.74,0,0,1-8.74-8.72ZM98,43.41a3.5,3.5,0,0,0-6.55,1.71v92.5a3.5,3.5,0,0,1-3.6,3.38h0a3.74,3.74,0,0,1-2.6-1,3.28,3.28,0,0,1-1-2.35V85.25a8,8,0,0,0-8-8h0a8,8,0,0,0-8,8v52.36a3.61,3.61,0,0,1-7.21,0V78.78c0-.16,0-.32,0-.48s0-.31,0-.47V45.18A3.5,3.5,0,0,0,54.87,43L44.42,55.83a3.5,3.5,0,0,0-.35,3.88L54.05,78a1.24,1.24,0,0,1,0,.16v.34a1.34,1.34,0,0,1-.89,1,1.6,1.6,0,0,1-2-.75c0-.09-.08-.18-.13-.27L40,57.58a1.17,1.17,0,0,1,0-.74L52.66,40.61a5.71,5.71,0,0,1,4.49-2.15h7.67c.12.12.22.25.34.37a15.66,15.66,0,0,0,11.12,4.6h0a15.71,15.71,0,0,0,11.45-5h7a7,7,0,0,1,5.41,2.5l19.75,35.68a1.4,1.4,0,0,1-.53,1.88,1.35,1.35,0,0,1-1,.13,1.38,1.38,0,0,1-.84-.65Zm-43.91,20-2.75-5L54.09,55Z" transform="translate(-32.92 -12)"/></svg>