<svg id="Calque_1" data-name="Calque 1" xmlns="http://www.w3.org/2000/svg" viewBox="0 0 90 65.87"><title>tax</title><path d="M75.35,17.06A16.82,16.82,0,1,0,92.17,33.88,16.82,16.82,0,0,0,75.35,17.06ZM81,41.83a7.09,7.09,0,0,1-4.52,1.76V46H73.7V43.54a6.81,6.81,0,0,1-4-1.55,5.32,5.32,0,0,1-1.56-3.56h4.13a2.08,2.08,0,0,0,1,1.51,4.83,4.83,0,0,0,2.45.48,3.1,3.1,0,0,0,1.91-.55,1.75,1.75,0,0,0,.73-1.47,1.9,1.9,0,0,0-.6-1.4,5.66,5.66,0,0,0-2.05-1.13c-.86-.31-1.73-.65-2.61-1a17,17,0,0,1-2.57-1.34,5.22,5.22,0,0,1-1.68-1.69,4.78,4.78,0,0,1-.54-2.4,4.7,4.7,0,0,1,1.42-3.52,6.83,6.83,0,0,1,4-1.72V21.74h2.78v2.44a6.69,6.69,0,0,1,4.2,1.49,4.77,4.77,0,0,1,1.42,3.46H78a1.63,1.63,0,0,0-.73-1.55,3.55,3.55,0,0,0-2-.58,3.91,3.91,0,0,0-2.17.48,1.57,1.57,0,0,0-.71,1.4,1.89,1.89,0,0,0,.42,1.23,4.23,4.23,0,0,0,1.53,1,13,13,0,0,0,1.6.64c.55.18,1.1.37,1.63.58s1.06.43,1.58.67a8.06,8.06,0,0,1,1.44.86,4.81,4.81,0,0,1,1.56,1.76,5,5,0,0,1,.45,2.2A5.31,5.31,0,0,1,81,41.83Z" transform="translate(-5 -17.06)"/><path d="M92.93,62.16h-.59C90,62.26,84.83,63.5,79.41,65L62.46,70a2.11,2.11,0,0,1-1.06,0L43.49,65.69a2.08,2.08,0,0,1-1.29-.93l-2.1-3.44a2.07,2.07,0,0,1,2.19-3.11L60.8,62.1h1.14a4.41,4.41,0,0,0,4.41-4.41,4.32,4.32,0,0,0-.3-1.59,8.08,8.08,0,0,0-4.94-4.74L39.49,44.09a8.16,8.16,0,0,0-3.86-.33L11.21,47.55a1.93,1.93,0,0,1-.48,0l-3.5-.27A2.06,2.06,0,0,0,5,49.18a1.09,1.09,0,0,0,0,.18V64.8a2.07,2.07,0,0,0,2.07,2.07h7a2.06,2.06,0,0,1,1,.25L33.63,77.27a1.91,1.91,0,0,0,.62.22L64.07,82.9a2.07,2.07,0,0,0,1.18-.13L93.74,70.62A2.06,2.06,0,0,0,95,68.72V64.23a2.07,2.07,0,0,0-2.07-2.07Z" transform="translate(-5 -17.06)"/></svg>